# xmcd
#
# Track frame offsets:
# 150
# 18384
# 37917
# 56264
# 76352
# 102079
# 118905
# 139760
# 164900
# 191326
# 216887
# 242502
# 264829
# 287308
#
# Disc length: 4278 seconds
#
# Revision: 0
# Processed by: cddbd v1.4PL0 Copyright (c) Steve Scherf et al.
# Submitted via: Audion 2.6.0 (http://www.panic.com/audion/)
#
DISCID=b710b40e
DTITLE=muchos..... - Danza Árabe
DYEAR=1900
DGENRE=
TTITLE0=
TTITLE1=
TTITLE2=
TTITLE3=
TTITLE4=El camello y su cuidador
TTITLE5=Mis ojos, una vela
TTITLE6=Sufrimiento
TTITLE7=La belleza de tus ojos
TTITLE8=Marchad en  paz
TTITLE9=Khalliouni khalliouni
TTITLE10=Menfi
TTITLE11=Wahrane Wahrane
TTITLE12=Abdel Kader
TTITLE13=Ya rayah
EXTD=
EXTT0=
EXTT1=
EXTT2=
EXTT3=
EXTT4=
EXTT5=
EXTT6=
EXTT7=
EXTT8=
EXTT9=
EXTT10=
EXTT11=
EXTT12=
EXTT13=
PLAYORDER=
